<mxfile host="app.diagrams.net" modified="2023-10-04T20:13:29.020Z" agent="Mozilla/5.0 (Windows NT 10.0; Win64; x64) AppleWebKit/537.36 (KHTML, like Gecko) Chrome/117.0.0.0 Safari/537.36" etag="GJDAKbBCAQWGun2zXSE7" version="21.8.2" type="github">
  <diagram name="Страница — 1" id="OEXieys6IyBbqHFSCYJF">
    <mxGraphModel dx="842" dy="530" grid="1" gridSize="5" guides="1" tooltips="1" connect="1" arrows="1" fold="1" page="1" pageScale="1" pageWidth="1169" pageHeight="827" math="0" shadow="0">
      <root>
        <mxCell id="0" />
        <mxCell id="1" parent="0" />
        <mxCell id="LYe48fv7NBrQbQcGyMcg-10" value="" style="group" vertex="1" connectable="0" parent="1">
          <mxGeometry x="555" y="384" width="60" height="60" as="geometry" />
        </mxCell>
        <mxCell id="LYe48fv7NBrQbQcGyMcg-6" value="" style="ellipse;whiteSpace=wrap;html=1;aspect=fixed;" vertex="1" parent="LYe48fv7NBrQbQcGyMcg-10">
          <mxGeometry width="60" height="60" as="geometry" />
        </mxCell>
        <mxCell id="LYe48fv7NBrQbQcGyMcg-8" value="" style="ellipse;whiteSpace=wrap;html=1;aspect=fixed;" vertex="1" parent="LYe48fv7NBrQbQcGyMcg-10">
          <mxGeometry x="7.5" y="7" width="45" height="45" as="geometry" />
        </mxCell>
        <mxCell id="LYe48fv7NBrQbQcGyMcg-9" value="&lt;b&gt;&lt;font style=&quot;font-size: 21px;&quot;&gt;S&lt;/font&gt;&lt;/b&gt;" style="text;html=1;strokeColor=none;fillColor=none;align=center;verticalAlign=middle;whiteSpace=wrap;rounded=0;" vertex="1" parent="LYe48fv7NBrQbQcGyMcg-10">
          <mxGeometry y="15" width="60" height="30" as="geometry" />
        </mxCell>
        <mxCell id="LYe48fv7NBrQbQcGyMcg-19" value="" style="group;movable=1;resizable=1;rotatable=1;deletable=1;editable=1;locked=0;connectable=1;" vertex="1" connectable="0" parent="1">
          <mxGeometry x="1005" y="760" width="60" height="60" as="geometry" />
        </mxCell>
        <mxCell id="LYe48fv7NBrQbQcGyMcg-20" value="" style="ellipse;whiteSpace=wrap;html=1;aspect=fixed;movable=1;resizable=1;rotatable=1;deletable=1;editable=1;locked=0;connectable=1;" vertex="1" parent="LYe48fv7NBrQbQcGyMcg-19">
          <mxGeometry width="60" height="60" as="geometry" />
        </mxCell>
        <mxCell id="LYe48fv7NBrQbQcGyMcg-21" value="" style="ellipse;whiteSpace=wrap;html=1;aspect=fixed;movable=1;resizable=1;rotatable=1;deletable=1;editable=1;locked=0;connectable=1;" vertex="1" parent="LYe48fv7NBrQbQcGyMcg-19">
          <mxGeometry x="7.5" y="7" width="45" height="45" as="geometry" />
        </mxCell>
        <mxCell id="LYe48fv7NBrQbQcGyMcg-22" value="&lt;span style=&quot;font-size: 21px;&quot;&gt;&lt;b&gt;F&lt;/b&gt;&lt;/span&gt;" style="text;html=1;strokeColor=none;fillColor=none;align=center;verticalAlign=middle;whiteSpace=wrap;rounded=0;movable=1;resizable=1;rotatable=1;deletable=1;editable=1;locked=0;connectable=1;" vertex="1" parent="LYe48fv7NBrQbQcGyMcg-19">
          <mxGeometry y="15" width="60" height="30" as="geometry" />
        </mxCell>
        <mxCell id="LYe48fv7NBrQbQcGyMcg-23" value="&lt;b&gt;&lt;i&gt;Q&lt;/i&gt;&lt;/b&gt;" style="ellipse;whiteSpace=wrap;html=1;aspect=fixed;container=0;movable=1;resizable=1;rotatable=1;deletable=1;editable=1;locked=0;connectable=1;" vertex="1" parent="1">
          <mxGeometry x="945" y="767.5" width="45" height="45" as="geometry" />
        </mxCell>
        <mxCell id="LYe48fv7NBrQbQcGyMcg-24" value="" style="group;movable=1;resizable=1;rotatable=1;deletable=1;editable=1;locked=0;connectable=1;" vertex="1" connectable="0" parent="1">
          <mxGeometry x="1080" y="760" width="60" height="60" as="geometry" />
        </mxCell>
        <mxCell id="LYe48fv7NBrQbQcGyMcg-25" value="" style="ellipse;whiteSpace=wrap;html=1;aspect=fixed;movable=0;resizable=0;rotatable=0;deletable=0;editable=0;locked=1;connectable=0;" vertex="1" parent="LYe48fv7NBrQbQcGyMcg-24">
          <mxGeometry width="60" height="60" as="geometry" />
        </mxCell>
        <mxCell id="LYe48fv7NBrQbQcGyMcg-26" value="" style="ellipse;whiteSpace=wrap;html=1;aspect=fixed;movable=0;resizable=0;rotatable=0;deletable=0;editable=0;locked=1;connectable=0;" vertex="1" parent="LYe48fv7NBrQbQcGyMcg-24">
          <mxGeometry x="7.5" y="7" width="45" height="45" as="geometry" />
        </mxCell>
        <mxCell id="LYe48fv7NBrQbQcGyMcg-27" value="&lt;b&gt;&lt;font style=&quot;font-size: 21px;&quot;&gt;S&lt;/font&gt;&lt;/b&gt;" style="text;html=1;strokeColor=none;fillColor=none;align=center;verticalAlign=middle;whiteSpace=wrap;rounded=0;movable=0;resizable=0;rotatable=0;deletable=0;editable=0;locked=1;connectable=0;" vertex="1" parent="LYe48fv7NBrQbQcGyMcg-24">
          <mxGeometry y="15" width="60" height="30" as="geometry" />
        </mxCell>
      </root>
    </mxGraphModel>
  </diagram>
</mxfile>
